<?xml version="1.0" standalone="no"?>
<!DOCTYPE svg PUBLIC "-//W3C//DTD SVG 20010904//EN"
 "http://www.w3.org/TR/2001/REC-SVG-20010904/DTD/svg10.dtd">
<svg version="1.0" xmlns="http://www.w3.org/2000/svg"
 width="700.000000pt" height="700.000000pt" viewBox="0 0 700.000000 700.000000"
 preserveAspectRatio="xMidYMid meet">
<metadata>
Created by potrace 1.11, written by Peter Selinger 2001-2013
</metadata>
<g transform="translate(0.000000,700.000000) scale(0.100000,-0.100000)"
fill="#000000" stroke="none">
<path d="M0 3499 l0 -3499 338 1 c332 1 377 4 562 42 59 12 339 78 370 88 19
5 42 12 51 14 36 8 332 97 444 134 305 99 684 247 975 379 36 16 88 39 115 52
87 39 406 198 500 248 247 132 434 247 707 434 43 30 308 228 324 243 6 5 33
28 60 50 89 73 207 173 248 210 234 210 345 314 506 476 340 341 652 739 914
1164 48 77 91 147 96 155 86 139 267 491 365 710 114 254 207 526 309 905 19
72 37 141 40 155 5 23 9 41 21 90 10 38 16 65 25 110 5 25 13 56 17 70 4 14 9
305 10 647 l4 622 -3501 0 -3500 0 0 -3500z m2962 1751 c200 -32 392 -129 544
-276 93 -91 132 -141 187 -244 88 -164 119 -279 123 -460 4 -183 -26 -320
-106 -480 -70 -140 -167 -256 -294 -352 -196 -148 -432 -222 -675 -211 -96 4
-106 6 -216 33 -50 12 -135 44 -190 70 -630 303 -777 1129 -288 1625 160 163
402 283 606 301 40 3 73 7 75 9 6 6 171 -4 234 -15z"/>
<path d="M6970 4814 c-6 -14 -10 -29 -10 -33 0 -18 -120 -324 -187 -476 -70
-157 -202 -429 -251 -517 -12 -21 -38 -68 -58 -105 -20 -37 -43 -75 -50 -84
-8 -8 -14 -19 -14 -22 0 -15 -149 -254 -269 -432 -125 -185 -301 -420 -407
-545 -172 -201 -247 -283 -404 -440 -102 -102 -221 -217 -265 -255 -44 -39
-89 -79 -101 -90 -11 -11 -40 -36 -64 -55 -24 -19 -50 -42 -59 -51 -17 -17
-197 -162 -268 -216 -67 -51 -127 -96 -154 -116 -13 -9 -58 -42 -99 -73 -92
-68 -476 -324 -486 -324 -4 0 -21 -10 -38 -23 -17 -13 -80 -52 -141 -87 -60
-36 -118 -70 -130 -77 -11 -7 -27 -15 -35 -19 -8 -4 -49 -26 -90 -49 -206
-116 -514 -265 -795 -385 -225 -97 -673 -254 -852 -300 -24 -6 -43 -15 -43
-20 0 -6 210 -10 563 -11 309 0 976 -1 1482 -2 l919 -2 2 40 c8 156 39 278
101 394 111 211 291 361 520 436 99 33 114 35 248 40 97 4 178 -5 271 -28 168
-42 360 -169 462 -306 15 -20 30 -38 34 -41 15 -12 90 -163 113 -229 27 -77
44 -177 45 -258 l0 -52 270 -1 270 0 0 2420 c0 1646 -3 2420 -10 2420 -6 0
-15 -12 -20 -26z"/>
</g>
</svg>
